<?xml version="1.0" encoding="UTF-8"?><svg id="final-outline" xmlns="http://www.w3.org/2000/svg" viewBox="0 0 1500 1500"><defs><style>.cls-1{fill:#000;stroke-width:0px;}</style></defs><path id="Tin" class="cls-1" d="M325.94,1293.61c-50.84-29.9-98.01-66.18-140.19-107.84-8.25-8.15-8.34-21.45-.19-29.7,8.15-8.25,21.45-8.34,29.7-.19,39.71,39.22,84.12,73.38,131.97,101.52,125.17,73.61,275.05,107.88,445.46,101.85,97.19-3.43,200.13-20.4,297.68-49.06,11.13-3.27,22.8,3.1,26.07,14.23,3.27,11.13-3.1,22.8-14.23,26.07-100.88,29.64-207.39,47.19-308.04,50.74-12.98.46-25.89.69-38.71.69-66.29,0-130.19-6.13-190.46-18.28-86.83-17.51-167.26-47.8-239.07-90.03ZM1501.82,961.12c-1.64,105.19-32.21,201.74-88.39,279.22-30.47,42.02-69.53,79.87-116.09,112.51-43.63,30.58-94.02,56.72-149.79,77.7-104.88,39.45-228.01,60.31-356.07,60.31-70.94,0-141.87-6.35-210.81-18.88-70.4-12.79-137.34-31.79-198.96-56.46-64.64-25.87-122.61-57.69-172.31-94.57-53.28-39.53-96.83-84.75-129.45-134.41C31.3,1112.51,3.45,1023.74-.6,929.83c-1.96-45.55,1.76-91.23,11.08-135.75,9.49-45.37,24.66-88.85,45.06-129.24,37.94-75.07,94.22-139.46,167.28-191.36,20.5-14.56,42.35-28.15,65.47-40.76,1.52-5.64,2.67-11.51,3.42-17.64,2.37-19.34.87-41.73-4.47-66.56-10.76-50-34.91-102.04-56.21-147.95-15.04-32.41-28.02-60.39-35.33-85.05-4.82-16.26-6.81-30.18-6.08-42.56,1.49-25.39,13.82-40.41,23.91-48.55,12.97-10.46,29.58-15.76,49.41-15.76h.01c27.31,0,62.67,10.47,105.12,31.12,38.88,18.92,83.5,46.36,129.04,79.35,79.47,57.58,158.1,128.93,227.28,205.75.77,0,1.57,0,2.43,0,37.48,0,171.03,3.56,316.08,49.33,11.86,3.74,23.53,7.69,35,11.82,17.64-39.44,20.02-76.46,20.08-77.42.13-2.59.5-5.16,1.11-7.68,1.73-7.2,3.42-17.07,5.38-28.5,5.33-31.13,12.63-73.75,30.11-114.46,13.65-31.79,35.84-56.86,47.85-68.98,9.24-9.31,18.78-17.38,27.59-23.33,13.96-9.42,26.77-14,39.18-14,2.82,0,5.63.24,8.37.71,10.53,1.82,29.69,8.87,39.62,35.64,3.79,10.21,6.24,23.09,7.7,40.56,1.64,19.55,2.05,45.07,1.21,77.11,12.49-5.43,26.18-10.16,41.09-13.74,4.11-.99,41.01-9.64,71.22-9.64,11.02,0,20.37,1.1,28.59,3.35,20.83,5.72,31.12,18.09,36.08,27.45,8.43,15.9,9.07,36.36,1.8,57.61-8.95,26.16-29.45,52.81-60.96,79.22-36.71,30.77-88.88,61.58-155.06,91.56-6.67,3.58-15.86,9.89-23.37,20.17-1.34,1.83-2.53,3.67-3.59,5.49,6.66,4.41,13.2,8.91,19.61,13.51,76.72,54.99,136.2,123.52,176.79,203.68,20.96,41.4,37.09,86.06,47.94,132.75,11.09,47.71,16.33,96.17,15.59,144.01ZM1062.09,469.71c-44.83,33.93-106.93,53.41-171.95,68,23.7,34.81,47.36,72.45,68.11,110.96,32.39,60.13,53.18,114.57,61.8,161.8,2.2,12.02,3.63,23.66,4.3,34.92,87.05-118.06,155.22-282.46,167.01-355.83.01-.08.03-.16.04-.25.21-1.33.4-2.62.58-3.89,0-.07.02-.14.03-.21.27-2,.66-4.42,1.24-7.17,1.79-8.6,5.4-20.44,12.92-32.98,1.62-2.7,3.41-5.43,5.41-8.17,11.06-15.12,23.95-24.52,33.13-29.97.71-.42,1.39-.81,2.05-1.19,1.32-.75,2.54-1.4,3.65-1.97,4.52-2.04,8.94-4.07,13.26-6.09,3.82-1.78,7.55-3.56,11.22-5.32,4.22-2.03,8.34-4.05,12.37-6.06,2.03-1.01,4.04-2.02,6.01-3.02,3.95-2.01,7.81-4,11.57-5.98,144.09-75.9,147.95-131.62,141.13-144.49,0,0,0,0,0,0-.19-.35-.41-.69-.64-1.01-.07-.1-.14-.19-.22-.28-.19-.25-.39-.48-.61-.71-.08-.08-.15-.16-.23-.24-.29-.29-.6-.58-.94-.85-.06-.05-.13-.09-.19-.14-.29-.22-.59-.44-.9-.64-.11-.08-.23-.15-.35-.22-.31-.19-.63-.38-.97-.55-.09-.05-.18-.1-.27-.15-.42-.22-.86-.42-1.32-.61-.12-.05-.24-.1-.36-.15-.36-.15-.73-.29-1.12-.42-.15-.05-.3-.11-.46-.16-.45-.15-.91-.29-1.39-.42-.06-.02-.12-.04-.18-.05-.54-.15-1.09-.28-1.65-.41-.17-.04-.34-.07-.5-.11-.43-.09-.87-.18-1.32-.26-.17-.03-.34-.06-.52-.09-.6-.1-1.21-.2-1.83-.28-.09-.01-.17-.02-.26-.03-.55-.07-1.11-.14-1.68-.2-.2-.02-.4-.04-.61-.06-.51-.05-1.02-.09-1.55-.13-.17-.01-.33-.03-.5-.04-.67-.05-1.36-.09-2.05-.12-.16,0-.33-.01-.49-.02-.56-.02-1.12-.04-1.68-.05-.22,0-.44-.01-.65-.01-.61-.01-1.22-.02-1.84-.02-.1,0-.19,0-.28,0-.03,0-.05,0-.08,0-.71,0-1.43,0-2.16.02-.19,0-.39,0-.59.01-.55.01-1.1.03-1.65.04-.24,0-.47.02-.71.02-.58.02-1.17.05-1.76.08-.16,0-.32.01-.49.02-.75.04-1.5.08-2.26.13-.18.01-.35.02-.53.04-.59.04-1.18.08-1.77.13-.24.02-.48.04-.72.06-.58.05-1.17.1-1.75.15-.19.02-.37.03-.56.05-.76.07-1.53.14-2.29.22-.14.01-.27.03-.41.04-.64.06-1.27.13-1.9.2-.23.02-.46.05-.69.08-.58.06-1.15.13-1.72.2-.2.02-.4.05-.6.07-.76.09-1.52.19-2.27.28-.08.01-.16.02-.24.03-.68.09-1.35.18-2.03.27-.21.03-.43.06-.64.09-.56.08-1.12.16-1.68.24-.2.03-.4.06-.6.09-1.47.21-2.92.44-4.35.66-.19.03-.39.06-.58.09-.53.09-1.06.17-1.59.26-.2.03-.4.07-.6.1-.62.1-1.23.21-1.84.31-.07.01-.14.02-.2.03-.68.12-1.34.23-2,.35-.17.03-.33.06-.5.09-.49.09-.98.18-1.46.26-.19.03-.37.07-.56.1-.53.1-1.06.2-1.57.29-.09.02-.18.03-.27.05-.6.11-1.18.22-1.76.34-.16.03-.32.06-.47.09-.43.08-.85.17-1.26.25-.16.03-.32.06-.48.1-.44.09-.87.17-1.3.26-.1.02-.2.04-.29.06-.52.1-1.02.21-1.5.31-.1.02-.2.04-.3.06-.37.08-.73.15-1.08.23-.15.03-.3.06-.45.09-.32.07-.63.13-.94.2-.11.02-.21.05-.32.07-.4.09-.78.17-1.14.25-.08.02-.15.03-.22.05-.29.06-.57.12-.83.18-.1.02-.2.04-.3.07-.22.05-.43.1-.63.14-.09.02-.19.04-.28.06-.26.06-.5.11-.72.16-.06.01-.11.03-.17.04-.16.04-.32.07-.46.1-.08.02-.14.03-.21.05-.1.02-.19.04-.27.06-.06.01-.12.03-.18.04-.09.02-.17.04-.23.06-.01,0-.03,0-.04.01-1.84.44-3.66.91-5.45,1.4-42.79,11.51-71.84,34.07-86.95,47.98-1.63,1.5-3.1,2.9-4.4,4.17.47-7.33.9-14.39,1.29-21.2.52-9.07.96-17.68,1.34-25.85.28-6.13.53-12.01.74-17.66.35-9.41.6-18.16.75-26.29.03-1.63.06-3.23.08-4.81.12-7.89.15-15.17.09-21.88-.01-1.34-.02-2.66-.04-3.96-.14-10.38-.48-19.34-.99-27.05-.13-2-.28-3.92-.43-5.76-.14-1.69-.3-3.32-.46-4.88-.08-.81-.17-1.61-.26-2.38-.18-1.55-.36-3.03-.56-4.45-.39-2.83-.82-5.38-1.27-7.67-.49-2.47-1.02-4.64-1.57-6.55-.18-.61-.36-1.2-.54-1.76-.44-1.35-.9-2.56-1.38-3.61-1-2.23-2.06-3.83-3.16-4.92-.01-.01-.02-.02-.04-.03-.27-.27-.54-.5-.82-.71-.09-.07-.17-.13-.26-.19-.75-.51-1.51-.83-2.28-.96-.35-.06-.73-.09-1.12-.09-.03,0-.06,0-.09,0-.03,0-.06,0-.08,0-.11,0-.23,0-.34.01-.13,0-.26.01-.4.02-.12,0-.24.03-.36.04-.14.02-.27.03-.42.05-.12.02-.25.04-.38.07-.14.03-.29.05-.44.09-.13.03-.26.06-.4.09-.15.04-.3.07-.46.12-.14.04-.28.08-.42.12-.16.05-.31.09-.48.15-.14.05-.29.1-.43.15-.17.06-.33.11-.5.18-.15.05-.3.11-.45.17-.17.07-.34.13-.52.21-.15.06-.31.13-.46.19-.18.08-.35.15-.53.23-.16.07-.32.14-.48.22-.18.08-.37.17-.55.26-.16.08-.33.16-.49.24-.19.09-.38.19-.57.29-.17.09-.33.17-.5.26-.2.1-.4.21-.6.32-.17.09-.34.19-.51.28-.21.11-.41.23-.62.35-.17.1-.34.2-.51.3-.21.12-.42.25-.63.38-.18.11-.35.21-.53.32-.21.13-.43.27-.65.41-.18.11-.35.22-.53.34-.22.14-.45.29-.67.44-.18.12-.35.23-.53.35-.23.15-.46.31-.69.47-.18.12-.36.25-.54.37-.23.16-.47.33-.71.5-.18.13-.36.26-.54.39-.24.17-.49.35-.73.53-.18.13-.36.26-.54.4-.25.19-.5.38-.75.56-.18.14-.36.27-.54.41-.26.2-.52.4-.78.6-.18.14-.35.27-.53.41-.27.21-.54.43-.81.64-.17.14-.34.27-.52.41-.28.23-.56.46-.84.69-.17.14-.33.27-.5.41-.3.25-.6.5-.9.75-.15.13-.3.25-.46.38-.32.27-.64.54-.96.82-.14.12-.27.24-.41.36-.35.3-.69.61-1.04.91-.11.1-.23.2-.34.3-.4.35-.8.72-1.2,1.08-.06.06-.13.11-.19.17-.94.85-1.88,1.73-2.83,2.63-.03.03-.07.07-.1.1-.43.41-.87.83-1.31,1.25-.11.11-.23.23-.34.34-.36.35-.72.7-1.07,1.05-.14.14-.29.29-.43.43-.33.33-.65.65-.98.98-.17.18-.35.36-.52.53-.3.31-.6.61-.9.92-.18.19-.37.38-.55.57-.29.3-.58.6-.87.91-.19.2-.38.41-.58.61-.28.3-.56.6-.85.9-.2.21-.39.42-.59.64-.28.3-.55.6-.83.9-.2.22-.4.44-.6.66-.27.3-.55.6-.82.91-.2.23-.4.45-.6.68-.27.3-.54.61-.81.91-.2.23-.4.46-.61.69-.27.31-.53.61-.8.92-.2.24-.41.48-.61.72-.26.31-.53.62-.79.93-.2.24-.4.48-.61.73-.26.31-.52.63-.78.94-.2.25-.41.49-.61.74-.26.31-.51.63-.77.95-.21.25-.41.51-.62.77-.25.31-.5.63-.75.94-.21.26-.41.52-.62.78-.25.32-.5.64-.74.95-.2.26-.41.53-.61.79-.24.32-.49.64-.73.96-.2.27-.41.54-.61.81-.24.32-.49.65-.73.97-.2.27-.4.54-.6.81-.24.33-.48.66-.72.98-.2.27-.39.54-.59.82-.24.33-.47.66-.71.99-.19.27-.39.55-.58.82-.24.34-.47.67-.7,1.01-.19.27-.38.55-.57.82-.23.34-.46.68-.69,1.02-.19.28-.37.56-.56.83-.23.34-.45.68-.68,1.02-.18.28-.37.56-.55.84-.22.35-.45.69-.67,1.04-.18.28-.36.56-.54.84-.22.35-.44.7-.66,1.05-.17.28-.35.56-.52.84-.22.35-.43.71-.65,1.06-.17.28-.34.56-.51.84-.21.36-.42.71-.63,1.07-.17.28-.33.56-.49.84-.21.36-.42.73-.62,1.09-.16.28-.32.56-.48.83-.21.37-.41.74-.62,1.11-.15.27-.3.55-.45.82-.21.38-.41.76-.61,1.14-.14.27-.29.54-.43.8-.21.39-.41.79-.61,1.18-.13.25-.26.51-.39.76-.21.4-.41.81-.61,1.22-.12.25-.25.5-.37.74-.21.44-.42.88-.63,1.32-.1.21-.21.43-.31.64-.24.51-.47,1.01-.7,1.52-.07.15-.14.3-.2.45-.3.66-.59,1.32-.87,1.98-15.04,35.03-21.73,72.5-26.82,102.19-2.26,13.16-4.2,24.81-6.42,34.02,0,0-.9,18.89-7.55,45.44-.21.84-.43,1.7-.65,2.56-.62,2.38-1.28,4.81-1.99,7.29-.28.97-.56,1.94-.85,2.92-.12.42-.25.83-.38,1.25-2.97,9.82-6.71,20.3-11.4,31.01-.53,1.22-1.07,2.44-1.63,3.67-.71,1.55-1.45,3.09-2.2,4.61-.24.49-.49.96-.74,1.44-.52,1.03-1.05,2.06-1.6,3.07-.3.56-.61,1.11-.92,1.67-.51.92-1.03,1.85-1.56,2.76-.33.57-.67,1.13-1,1.7-.53.89-1.07,1.78-1.62,2.65-.34.55-.69,1.1-1.04,1.64-.58.9-1.17,1.79-1.76,2.68-.33.5-.67,1-1.01,1.49-.67.98-1.36,1.94-2.05,2.9-.28.39-.55.77-.83,1.16-1.25,1.69-2.53,3.35-3.84,5-.79.99-1.57,1.97-2.38,2.94-.21.25-.42.49-.63.73-.87,1.03-1.75,2.05-2.65,3.06-.32.36-.65.72-.97,1.07-.8.89-1.61,1.78-2.44,2.65-.36.38-.72.76-1.09,1.14-.81.85-1.64,1.69-2.47,2.53-.37.37-.73.73-1.1,1.1-.87.86-1.75,1.7-2.63,2.54-.34.32-.67.64-1.01.96-1,.93-2.01,1.86-3.04,2.77-.23.21-.46.42-.7.63-3.88,3.44-7.92,6.74-12.12,9.91ZM761.5,367.7c7.24,8.69,14.35,17.42,21.31,26.2,6.7,8.45,14.34,18.08,22.65,28.72,72.35,3.68,140.96,14.51,203.5,31.21,11.39-6.09,21.44-12.57,30.31-19.54,5.08-4,9.73-8.14,13.98-12.42-118.08-40.83-231.3-51.52-291.75-54.17ZM334.26,411.41c-.05.66-.1,1.32-.15,1.98-.05.63-.11,1.26-.17,1.89-.06.6-.12,1.2-.18,1.8-.07.65-.14,1.31-.22,1.96-.07.56-.13,1.12-.21,1.69-.09.68-.17,1.36-.26,2.03-.07.5-.15,1.01-.22,1.51-.39,2.69-.85,5.37-1.37,8.03-.06.3-.11.6-.17.9-.17.83-.34,1.65-.52,2.48-.08.35-.15.69-.23,1.04-.19.83-.38,1.66-.58,2.5-.07.3-.15.61-.22.91-.22.88-.44,1.76-.67,2.64-.04.15-.08.3-.12.45-1.1,4.12-2.37,8.2-3.81,12.24-.05.15-.1.3-.16.44-.34.94-.69,1.87-1.05,2.81-.06.16-.12.31-.18.47-.37.96-.75,1.92-1.15,2.88,0,0,0,0,0,0h0c-4.51,10.98-10.39,21.62-17.85,31.82-36.88,50.41-97.41,72.27-118.54,149.14,0,0-.17.62-.44,1.79h0c-.03.13-.06.27-.1.42-.02.07-.03.14-.05.22-.03.13-.06.27-.09.4-.02.1-.05.21-.07.31-.03.13-.06.27-.09.42-.03.13-.06.26-.09.4-.03.14-.06.28-.09.43-.03.15-.07.31-.1.47-.03.15-.06.3-.09.45-.04.18-.07.36-.11.55-.03.15-.06.29-.09.45-.04.22-.08.44-.13.67-.03.14-.05.28-.08.43-.05.26-.1.54-.15.81-.02.12-.04.23-.07.36-.15.82-.3,1.7-.45,2.63,0,.05-.02.11-.03.16-.07.41-.14.83-.2,1.27-.02.12-.04.24-.06.36-.06.37-.12.75-.17,1.14-.02.15-.04.31-.07.46-.05.37-.11.75-.16,1.13-.02.17-.05.34-.07.52-.05.38-.1.75-.15,1.14-.02.19-.05.38-.07.57-.05.39-.1.78-.15,1.18-.02.19-.05.39-.07.59-.05.42-.1.84-.15,1.26-.02.19-.04.37-.06.56-.05.46-.1.94-.15,1.41-.02.16-.03.32-.05.48-.06.55-.11,1.11-.17,1.67,0,.1-.02.19-.03.29-.19,2.03-.37,4.17-.52,6.41,0,.14-.02.28-.03.42-.04.6-.08,1.2-.11,1.81-.01.2-.02.41-.03.61-.03.56-.06,1.12-.09,1.69-.01.23-.02.47-.03.7-.02.55-.05,1.1-.07,1.67,0,.25-.02.5-.03.75-.02.56-.04,1.13-.05,1.7,0,.25-.01.51-.02.76-.01.58-.03,1.17-.04,1.77,0,.25,0,.5-.01.75,0,.62-.01,1.26-.02,1.89,0,.22,0,.44,0,.67,0,.72,0,1.46,0,2.19,0,.14,0,.28,0,.41.01,1.8.04,3.63.1,5.5,0,.06,0,.12,0,.18.02.85.05,1.71.09,2.57,0,.23.02.45.03.68.03.71.06,1.42.1,2.13.01.29.03.58.05.87.04.66.07,1.33.12,2,.02.32.04.65.06.97.04.65.09,1.3.14,1.95.03.34.05.68.08,1.02.05.65.1,1.3.16,1.96.03.35.06.69.09,1.04.06.67.12,1.34.19,2.01.03.34.07.68.1,1.02.07.71.15,1.42.23,2.13.03.31.07.62.1.93.09.8.19,1.61.29,2.42.03.23.05.46.08.69.27,2.11.57,4.24.9,6.41.03.21.07.43.1.64.13.85.27,1.71.41,2.57.06.34.12.69.18,1.04.13.74.25,1.48.39,2.22.07.4.15.79.22,1.19.13.7.26,1.4.4,2.1.08.43.17.85.25,1.28.14.68.27,1.37.42,2.05.09.44.18.88.28,1.32.15.68.3,1.37.45,2.06.1.44.2.89.3,1.33.16.7.32,1.4.49,2.09.1.44.21.88.32,1.32.18.73.36,1.46.54,2.19.1.42.21.83.31,1.25.21.81.43,1.62.65,2.44.09.34.18.68.27,1.03.63,2.32,1.31,4.66,2.03,7.02.11.35.22.69.32,1.04.26.83.51,1.66.78,2.49.14.45.29.9.44,1.34.24.74.48,1.47.73,2.21.16.49.33.98.5,1.46.24.7.49,1.41.74,2.12.18.51.36,1.02.55,1.52.25.69.51,1.39.77,2.09.19.52.39,1.03.58,1.55.26.69.53,1.39.81,2.09.2.52.41,1.04.61,1.56.28.7.57,1.41.86,2.12.21.51.42,1.02.63,1.54.31.73.62,1.47.93,2.2.21.49.41.97.63,1.46.35.81.71,1.62,1.08,2.43.19.42.37.83.56,1.25.54,1.19,1.09,2.37,1.65,3.56.02.04.04.08.06.12,0,.01.01.03.02.04.63,1.33,1.29,2.66,1.96,3.98.22.43.45.87.67,1.3.47.91.94,1.82,1.43,2.72.27.5.54.99.81,1.49.47.85.95,1.71,1.43,2.56.28.49.56.98.84,1.47.53.91,1.07,1.81,1.61,2.72.25.41.49.82.74,1.23.79,1.3,1.6,2.59,2.43,3.87.13.2.27.4.4.61.71,1.09,1.43,2.18,2.16,3.26.31.46.62.91.94,1.36.57.83,1.15,1.66,1.73,2.49.35.5.71,1,1.07,1.5.57.8,1.15,1.59,1.74,2.38.36.49.72.98,1.09,1.47.65.86,1.31,1.71,1.97,2.57.31.4.62.81.94,1.21.96,1.22,1.94,2.44,2.93,3.66.28.34.57.68.85,1.03.74.89,1.48,1.78,2.23,2.67.42.49.84.98,1.26,1.47.64.74,1.28,1.48,1.93,2.22.46.52.91,1.03,1.38,1.54.65.72,1.3,1.44,1.96,2.16.46.5.92,1,1.39,1.5.73.78,1.47,1.57,2.22,2.35.4.42.79.84,1.19,1.26,1.11,1.15,2.23,2.29,3.36,3.42.44.44.89.88,1.33,1.32.74.74,1.49,1.47,2.25,2.21.53.52,1.07,1.03,1.61,1.54.68.65,1.37,1.31,2.06,1.96.57.53,1.14,1.06,1.71,1.59.69.64,1.39,1.27,2.09,1.91.57.52,1.15,1.04,1.73,1.56.77.69,1.55,1.38,2.33,2.06.51.45,1.02.9,1.54,1.35,1.23,1.06,2.47,2.12,3.72,3.18.6.51,1.21,1.01,1.82,1.51.73.61,1.46,1.22,2.2,1.82.66.54,1.33,1.08,2,1.62.7.56,1.4,1.13,2.11,1.69.69.55,1.38,1.09,2.07,1.63.71.56,1.42,1.11,2.14,1.66.7.54,1.39,1.07,2.09,1.61.77.59,1.55,1.17,2.32,1.75,1.15.86,2.3,1.72,3.46,2.57.84.61,1.67,1.23,2.52,1.84.76.55,1.52,1.09,2.28,1.63.71.51,1.42,1.01,2.14,1.52.79.55,1.58,1.1,2.37,1.65.7.49,1.41.97,2.12,1.46.81.55,1.62,1.1,2.43,1.65.7.47,1.41.94,2.12,1.42.83.55,1.65,1.1,2.49,1.65.7.46,1.4.91,2.1,1.37,1.58,1.03,3.18,2.05,4.79,3.07.68.43,1.36.86,2.04,1.29.89.56,1.79,1.11,2.68,1.66.7.43,1.39.86,2.09,1.29.9.55,1.81,1.1,2.72,1.65.7.42,1.39.84,2.09,1.25.92.55,1.85,1.1,2.78,1.65.68.4,1.37.8,2.06,1.2.96.56,1.91,1.11,2.88,1.67.51.29,1.03.58,1.54.87,2.02,1.15,4.05,2.29,6.1,3.42.61.34,1.22.68,1.83,1.01,1.01.55,2.03,1.1,3.04,1.65.68.37,1.36.73,2.04,1.1,1.01.54,2.03,1.08,3.04,1.61.69.36,1.37.72,2.06,1.08,1.03.54,2.07,1.08,3.11,1.61.65.33,1.3.66,1.95.99,3.77,1.92,7.58,3.81,11.43,5.68.6.29,1.2.58,1.81.87,1.1.53,2.21,1.05,3.31,1.57.68.32,1.36.64,2.04.96,1.1.52,2.2,1.03,3.31,1.54.68.31,1.36.63,2.05.94,1.12.51,2.25,1.03,3.38,1.54.61.28,1.23.55,1.85.83,4.02,1.8,8.08,3.57,12.17,5.31.62.27,1.25.53,1.87.79,1.16.49,2.33.98,3.5,1.46.69.29,1.38.57,2.08.86,1.17.48,2.33.96,3.5,1.43.69.28,1.38.56,2.07.83,1.19.48,2.38.96,3.58,1.43.58.23,1.17.46,1.75.69,4.23,1.66,8.5,3.29,12.79,4.89.65.24,1.29.48,1.94.72,1.22.45,2.44.9,3.66,1.34.71.26,1.41.51,2.12.77,1.22.44,2.43.87,3.65,1.31.69.25,1.39.49,2.08.73,1.25.44,2.5.88,3.76,1.32.52.18,1.05.36,1.58.54,2.85.98,5.71,1.95,8.58,2.9.3.1.59.2.89.3,1.28.42,2.57.84,3.86,1.26.7.23,1.39.45,2.09.68,1.24.4,2.48.79,3.73,1.19.74.23,1.47.46,2.21.7,1.24.39,2.48.78,3.73,1.16.72.22,1.44.44,2.16.66,1.28.39,2.56.78,3.84,1.17.45.14.9.27,1.35.4,2.81.84,5.62,1.66,8.44,2.47.51.15,1.02.29,1.53.44,1.29.37,2.58.73,3.86,1.09.73.21,1.47.41,2.2.62,1.25.35,2.5.69,3.76,1.03.77.21,1.54.42,2.3.62,1.26.34,2.52.68,3.77,1.01.72.19,1.45.38,2.17.57,1.32.35,2.63.69,3.95,1.03.23.06.46.12.69.18,2.98.76,5.96,1.51,8.95,2.24.63.15,1.25.31,1.88.46.37.09.74.18,1.11.27-19.41-31.28-35.21-61.72-47.28-91.13-1.16-1.92-2-4.03-2.51-6.23-8.33-21.12-14.73-41.7-19.15-61.67-.07-.34-.14-.67-.22-1.01-10.5,3.02-29.25,7.23-52.2,7.23-24.89,0-54.72-4.94-84.32-21.71-43.22-24.47-63.11-61.33-71.12-81.12-4.35-10.75.84-22.99,11.59-27.34,10.75-4.35,22.99.84,27.34,11.59,5.96,14.72,20.75,42.13,52.88,60.33,47.43,26.86,97.64,12.84,107.22,9.75.75-.24,1.5-.43,2.26-.58-2.68-32.11-.04-62.92,7.92-92.01,6.63-24.23,15.86-43.83,24.78-62.8,13.66-29.04,25.46-54.12,26.48-91.82,1.58-58.9-24.57-119.3-77.75-179.55-7.67-8.69-6.85-21.97,1.85-29.64,8.7-7.68,21.97-6.85,29.64,1.85,60.44,68.47,90.13,138.61,88.25,208.47-1.25,46.5-16.1,78.06-30.46,108.58-6.25,13.28-12.24,26.03-17.23,40.03,22.46,8.38,66.81,19.51,115.68,2.23,45.4-16.05,70.36-47.63,81.2-65.02,6.13-9.84,19.08-12.85,28.93-6.72,9.84,6.13,12.85,19.08,6.72,28.93-13.74,22.06-45.37,62.09-102.84,82.41-23.71,8.38-46.55,11.45-67.26,11.45-29.91,0-55.38-6.39-72.68-12.37-4.16,28.21-2.73,57.81,4.35,89.79,3.51,15.88,8.45,32.26,14.78,49.08,29.88,8.33,88.86,18.16,150.37-8.78,41.8-18.3,68.5-46.5,83.53-66.93,6.87-9.34,20.02-11.34,29.36-4.47,9.34,6.87,11.34,20.02,4.47,29.36-18.07,24.56-50.18,58.47-100.51,80.51-36.32,15.9-71.78,21.1-102.63,21.1-15.97,0-30.69-1.39-43.67-3.41,13.59,26.97,30.4,54.9,50.38,83.67.56.1,1.11.19,1.67.29,1.59.27,3.17.54,4.76.8,1.56.26,3.13.51,4.69.76,1.4.22,2.79.44,4.19.66,1.18.18,2.35.36,3.53.54,1.71.26,3.42.51,5.13.75,1.49.21,2.98.42,4.47.63,1.33.18,2.66.37,3.99.54,1.19.16,2.38.32,3.57.47,2,.26,4,.51,6,.76,1.21.15,2.42.29,3.63.43,1.29.15,2.57.3,3.86.45,1.2.14,2.39.27,3.58.4,2.04.22,4.07.44,6.1.64,1.19.12,2.38.24,3.57.35,1.24.12,2.47.24,3.71.35,1.2.11,2.41.22,3.61.33,2.01.18,4.01.35,6.01.51,1.22.1,2.43.19,3.65.28,1.19.09,2.39.18,3.58.26,1.21.09,2.42.17,3.63.26,1.97.13,3.94.25,5.91.37,1.23.07,2.46.14,3.69.21,1.17.06,2.33.12,3.5.18,1.67.08,3.34.16,5,.23,1.47.06,2.95.12,4.42.18,1.25.05,2.49.09,3.73.13,1.14.04,2.28.07,3.42.1,1.82.05,3.64.09,5.45.13,1.28.03,2.56.05,3.83.07,1.24.02,2.48.03,3.72.04,1.12,0,2.24.02,3.36.02,27.85.11,54.69-1.47,79.87-4.86.03,0,.06,0,.09-.01,1.55-.21,3.08-.42,4.62-.65.11-.02.22-.03.32-.05,4.21-.61,8.38-1.28,12.49-2,.11-.02.21-.04.32-.06,1.98-.35,3.95-.71,5.91-1.08.08-.01.15-.03.23-.04,2.02-.39,4.03-.78,6.02-1.19.1-.02.19-.04.28-.06,1.85-.38,3.68-.78,5.5-1.18.22-.05.43-.09.65-.14,1.92-.43,3.83-.87,5.73-1.33.05-.01.1-.02.14-.04,1.78-.43,3.54-.87,5.29-1.32.31-.08.62-.16.93-.24,1.82-.47,3.63-.95,5.42-1.45,0,0,0,0,.01,0,1.74-.48,3.46-.98,5.18-1.49.37-.11.74-.22,1.1-.33,1.67-.5,3.33-1.01,4.97-1.53.02,0,.04-.01.07-.02.02,0,.04-.01.07-.02,1.67-.53,3.33-1.08,4.97-1.63.4-.14.8-.27,1.21-.41,1.41-.48,2.81-.97,4.19-1.47.25-.09.49-.17.74-.26,1.58-.57,3.14-1.16,4.68-1.75.4-.15.8-.31,1.2-.47,1.25-.49,2.5-.98,3.73-1.48.35-.14.71-.29,1.06-.43,1.46-.6,2.91-1.22,4.35-1.84.03-.01.06-.03.09-.04.37-.16.73-.32,1.09-.48,1.16-.51,2.32-1.03,3.46-1.56.41-.19.81-.37,1.21-.56,1.3-.61,2.58-1.22,3.85-1.85.12-.06.25-.12.37-.18.3-.15.6-.3.91-.46,1.12-.56,2.23-1.12,3.33-1.7.42-.22.83-.43,1.24-.65,1.15-.61,2.28-1.23,3.41-1.85.21-.12.42-.23.63-.35.2-.11.4-.23.59-.34,1.08-.61,2.14-1.23,3.2-1.85.06-.03.12-.07.17-.1.4-.24.8-.47,1.19-.71.99-.6,1.98-1.2,2.95-1.81.28-.18.57-.35.85-.53.03-.02.06-.04.09-.05,1.1-.7,2.18-1.41,3.25-2.13.15-.1.3-.2.45-.3.35-.24.71-.48,1.06-.72.86-.59,1.71-1.19,2.56-1.79.18-.12.35-.25.53-.37.2-.14.4-.28.59-.42.95-.69,1.88-1.39,2.81-2.09.22-.17.45-.33.67-.5.32-.24.63-.48.94-.73.74-.58,1.48-1.17,2.22-1.76.18-.15.37-.29.55-.44.24-.19.48-.38.72-.58.82-.67,1.61-1.36,2.41-2.05.28-.24.56-.48.84-.72.26-.23.51-.45.77-.68.65-.58,1.29-1.17,1.94-1.76.21-.19.41-.38.62-.56.25-.24.51-.47.76-.71.69-.65,1.36-1.32,2.04-1.98.32-.31.65-.63.97-.94.2-.2.39-.4.58-.6.59-.6,1.17-1.21,1.75-1.83.22-.23.44-.46.66-.69.25-.26.49-.53.74-.8.6-.66,1.18-1.32,1.77-1.99.33-.37.67-.74.99-1.12.12-.14.24-.28.35-.42.62-.73,1.23-1.48,1.83-2.22.16-.2.32-.39.48-.59.23-.29.46-.58.69-.87.84-1.06,1.66-2.14,2.46-3.22.02-.02.03-.04.05-.06.69-.95,1.36-1.9,2.02-2.86.19-.27.37-.54.55-.81.49-.73.98-1.47,1.45-2.21.18-.27.35-.54.53-.82.13-.2.24-.4.37-.6.46-.74.93-1.49,1.37-2.24.16-.28.32-.56.48-.83.4-.69.8-1.39,1.19-2.09.23-.41.45-.82.68-1.23.32-.6.64-1.2.95-1.8.22-.42.44-.84.65-1.26.12-.24.24-.49.36-.73.32-.64.63-1.28.94-1.92.26-.56.52-1.12.77-1.68.19-.42.38-.84.56-1.26.27-.61.53-1.22.79-1.83.07-.17.14-.33.21-.5.05-.11.09-.22.13-.33.47-1.14.93-2.3,1.36-3.45,0,0,0-.02,0-.02.44-1.16.86-2.33,1.26-3.5.06-.17.12-.34.17-.51.43-1.26.84-2.53,1.23-3.81,0-.01,0-.02.01-.03.39-1.29.77-2.59,1.13-3.9,26.8-98.61-54.39-243.39-132.07-354.92-2.25-3.23-4.5-6.43-6.74-9.6l-.09-.13c-2.2-3.11-4.39-6.19-6.57-9.24-.1-.14-.2-.28-.3-.42-2.11-2.95-4.21-5.86-6.3-8.75-.13-.18-.27-.37-.4-.55-2.1-2.9-4.2-5.77-6.28-8.61-1.61-2.2-3.21-4.37-4.81-6.53-.04-.06-.09-.12-.14-.18-1.58-2.14-3.15-4.25-4.71-6.34-.06-.07-.11-.15-.17-.22-4.75-6.37-9.41-12.55-13.95-18.52-.05-.06-.09-.12-.14-.18-1.51-1.98-3-3.94-4.48-5.87,0,0-.01-.01-.02-.02-2.98-3.9-5.91-7.69-8.77-11.39-.03-.04-.06-.08-.1-.12-1.39-1.8-2.77-3.57-4.13-5.32-.08-.1-.16-.2-.24-.3-1.35-1.74-2.69-3.46-4.01-5.15-.02-.02-.04-.05-.06-.07-1.34-1.72-2.66-3.41-3.97-5.07-.02-.02-.04-.05-.05-.07-1.24-1.58-2.46-3.13-3.67-4.67-.15-.19-.31-.39-.46-.58-1.15-1.46-2.28-2.9-3.4-4.31-.17-.22-.34-.43-.51-.65-1.12-1.42-2.22-2.82-3.3-4.18-.04-.05-.08-.1-.12-.15-1.02-1.28-2.01-2.54-2.99-3.78-.25-.32-.51-.64-.76-.96-.91-1.15-1.8-2.27-2.67-3.37-.45-.56-.89-1.12-1.33-1.68-14.87-18.76-30.16-37-45.73-54.7-2.1-2.38-4.2-4.76-6.3-7.12-.95-1.06-1.89-2.11-2.84-3.17-1.97-2.19-3.93-4.38-5.91-6.55-1.11-1.22-2.22-2.44-3.33-3.66-1.81-1.98-3.62-3.95-5.43-5.91-1.25-1.35-2.49-2.69-3.74-4.03-1.71-1.83-3.41-3.66-5.12-5.47C512.61,160.5,334.07,50.65,262.93,50.66c-9.85,0-17.65,2.11-23.04,6.46-44.94,36.23,105.11,210.59,94.37,354.29ZM1400.82,703.32c-42.2-83.35-102.74-146.09-170.58-193.3-2.45,11.57-5.8,24.39-9.96,38.22,79.03,56,126.12,126.48,126.12,203.06,0,182.31-266.92,330.09-596.17,330.09-297.48,0-544.07-120.64-588.89-278.38-14.77-35.74-22.45-74.6-22.28-113.29.14-33.14,5.98-55.37,6.65-57.83,6.17-22.46,15.53-42.79,28.43-61.73-31.39,32.42-59.08,70.01-81.13,113.63-76,150.41-69.12,340.98,22.02,479.7,123.26,187.62,403.96,285.37,676.43,285.37,240.17,0,473.93-75.92,587.96-233.17,108.69-149.89,98.58-359.92,21.39-512.36Z"/></svg>